<?xml version="1.0" encoding="UTF-8"?>
<svg version="1.1" viewBox="0 0 401 221" xmlns="http://www.w3.org/2000/svg" xmlns:cc="http://creativecommons.org/ns#" xmlns:dc="http://purl.org/dc/elements/1.1/" xmlns:rdf="http://www.w3.org/1999/02/22-rdf-syntax-ns#">
 <metadata>
  <rdf:RDF>
   <cc:Work rdf:about="">
    <dc:format>image/svg+xml</dc:format>
    <dc:type rdf:resource="http://purl.org/dc/dcmitype/StillImage"/>
    <dc:title>images/areas</dc:title>
   </cc:Work>
  </rdf:RDF>
 </metadata>
 <title>images/areas</title>
 <desc>Created with Sketch.</desc>
 <g fill-rule="evenodd">
  <g fill="#8f8981" stroke="#8f8981" stroke-linecap="square">
   <path id="Line" d="m59.5 26.411v184.08"/>
   <path d="m339.5 26.411v184.08"/>
   <path d="m199.5 26.411v184.08"/>
  </g>
  <rect transform="translate(3.4716,4)" width="110.58" height="38" fill="#f44d27"/>
  <g id="master" transform="translate(3.2173,4.4608)" fill="#979797" stroke-width="0" aria-label="WorkingDirectory">
   <path d="m31.102 15.531-.972-7.8h2.112l.096 3.864v2.016h.048q.072-.504.18-1.008t.204-1.008l.432-1.896h1.2l.396 1.896q.084.48.192.984t.192 1.032h.048v-2.016l.096-3.864h1.968l-.9 7.8h-2.136l-.348-2.136q-.06-.384-.12-.78-.048-.396-.06-.744h-.036q-.024.348-.072.744t-.108.78l-.324 2.136z"/>
   <path d="m40.902 15.675q-.6 0-1.164-.204-.552-.216-.984-.612-.432-.408-.696-.996-.252-.588-.252-1.332t.252-1.332q.264-.588.696-.984.432-.408.984-.612.564-.216 1.164-.216.588 0 1.14.216.564.204.996.612.432.396.696.984t.264 1.332-.264 1.332-.696.996q-.432.396-.996.612-.552.204-1.14.204zm0-1.656q.528 0 .756-.396.228-.408.228-1.092t-.228-1.08q-.228-.408-.756-.408t-.756.408q-.228.396-.228 1.08t.228 1.092q.228.396.756.396z"/>
   <path d="m45.745 15.531v-6h1.692l.156 1.272h.048q.432-.744 1.044-1.08t1.296-.336q.42 0 .648.072.24.06.492.168l-.408 1.728q-.276-.084-.504-.12-.216-.048-.54-.048-.516 0-1.02.312-.504.3-.84 1.056v2.976z"/>
   <path d="m52.46 15.531v-8.352h2.064v4.488h.048l1.824-2.136h2.232l-2.232 2.472 2.376 3.528h-2.232l-1.32-2.232-.696.768v1.464z"/>
   <path d="m62.056 15.531v-4.392h-2.28v-1.608h4.344v6zm.96-6.816q-.576 0-.948-.324-.372-.336-.372-.876t.372-.876q.372-.348.948-.348t.948.348q.372.336.372.876t-.372.876q-.372.324-.948.324z"/>
   <path d="m66.851 15.531v-6h1.68l.144.72h.048q.36-.348.852-.6.492-.264 1.152-.264.996 0 1.452.672.456.66.456 1.776v3.696h-2.064v-3.432q0-.504-.156-.732-.144-.228-.54-.228-.288 0-.504.12t-.456.336v3.936z"/>
   <path d="m76.506 18.003q-.564 0-1.056-.084-.48-.072-.852-.252t-.588-.468q-.204-.276-.204-.684 0-.72.912-1.152v-.048q-.252-.168-.432-.408-.168-.24-.168-.624 0-.312.204-.612t.516-.516v-.048q-.348-.216-.588-.612-.228-.396-.228-.924 0-.552.216-.96.216-.42.588-.684.372-.276.84-.408.48-.132 1.008-.132.564 0 1.02.144h2.424v1.488h-1.08q.06.108.108.276.06.168.06.348 0 .528-.192.912-.192.372-.54.612-.336.24-.804.36-.456.108-.996.108-.348 0-.756-.084-.108.084-.156.156-.036.06-.036.192 0 .204.216.288.216.072.72.072h1.02q1.2 0 1.848.372.648.36.648 1.188 0 .492-.264.888-.252.408-.732.696t-1.164.444q-.672.156-1.512.156zm.168-5.592q.3 0 .516-.204t.216-.636q0-.42-.216-.612-.216-.204-.516-.204t-.516.204q-.204.192-.204.612 0 .432.204.636.216.204.516.204zm.156 4.32q.612 0 .996-.156.396-.144.396-.396 0-.24-.24-.3t-.696-.06h-.6q-.348 0-.552-.024-.204-.012-.36-.048-.156.108-.228.204t-.072.228q0 .288.372.42t.984.132z"/>
   <path d="m23.679 28.531v-7.8h2.244q.84 0 1.536.216t1.2.684.78 1.2q.288.732.288 1.764t-.276 1.776-.78 1.224q-.492.48-1.164.708t-1.464.228zm2.064-1.656h.072q.372 0 .696-.096.336-.108.576-.36t.384-.696.144-1.128-.144-1.116-.384-.672-.576-.324q-.324-.096-.696-.096h-.072z"/>
   <path d="m33.274 28.531v-4.392h-2.28v-1.608h4.344v6zm.96-6.816q-.576 0-.948-.324-.372-.336-.372-.876t.372-.876q.372-.348.948-.348t.948.348q.372.336.372.876t-.372.876q-.372.324-.948.324z"/>
   <path d="m38.55 28.531v-6h1.692l.156 1.272h.048q.432-.744 1.044-1.08t1.296-.336q.42 0 .648.072.24.06.492.168l-.408 1.728q-.276-.084-.504-.12-.216-.048-.54-.048-.516 0-1.02.312-.504.3-.84 1.056v2.976z"/>
   <path d="m48.457 28.675q-.708 0-1.332-.204-.612-.216-1.068-.612-.444-.408-.708-.996-.252-.588-.252-1.332 0-.732.264-1.32t.696-.984q.444-.408 1.008-.624.576-.216 1.176-.216.708 0 1.236.228.54.228.9.624t.54.924.18 1.128q0 .276-.036.516-.024.24-.048.348h-3.852q.132.504.528.732t1.056.228q.36 0 .696-.084.348-.096.744-.276l.672 1.224q-.54.348-1.188.528-.648.168-1.212.168zm-.144-4.728q-.888 0-1.14.864h2.1q-.132-.864-.96-.864z"/>
   <path d="m55.796 28.675q-.708 0-1.332-.204-.612-.216-1.068-.612-.444-.408-.708-.996-.252-.588-.252-1.332t.288-1.332.768-.984q.492-.408 1.128-.612.636-.216 1.332-.216.708 0 1.296.216t.972.576l-.936 1.272q-.336-.228-.636-.312-.288-.096-.576-.096-.684 0-1.104.408-.42.396-.42 1.08t.408 1.092q.408.396 1.044.396.444 0 .804-.156t.672-.348l.816 1.296q-.564.456-1.236.66-.66.204-1.26.204z"/>
   <path d="m63.52 28.675q-.744 0-1.26-.192-.504-.192-.828-.54-.312-.36-.456-.852-.144-.504-.144-1.104v-1.848h-1.44v-1.536l1.536-.072.264-1.8h1.704v1.8h2.376v1.608h-2.376v1.812q0 .648.288.888.3.228.876.228.312 0 .576-.048.276-.06.516-.144l.36 1.488q-.396.108-.888.204-.492.108-1.104.108z"/>
   <path d="m69.683 28.675q-.6 0-1.164-.204-.552-.216-.984-.612-.432-.408-.696-.996-.252-.588-.252-1.332t.252-1.332q.264-.588.696-.984.432-.408.984-.612.564-.216 1.164-.216.588 0 1.14.216.564.204.996.612.432.396.696.984t.264 1.332-.264 1.332-.696.996q-.432.396-.996.612-.552.204-1.14.204zm0-1.656q.528 0 .756-.396.228-.408.228-1.092t-.228-1.08q-.228-.408-.756-.408t-.756.408q-.228.396-.228 1.08t.228 1.092q.228.396.756.396z"/>
   <path d="m74.526 28.531v-6h1.692l.156 1.272h.048q.432-.744 1.044-1.08t1.296-.336q.42 0 .648.072.24.06.492.168l-.408 1.728q-.276-.084-.504-.12-.216-.048-.54-.048-.516 0-1.02.312-.504.3-.84 1.056v2.976z"/>
   <path d="m82.238 30.787q-.276 0-.516-.036-.24-.024-.444-.084l.36-1.56q.228.072.432.072.48 0 .732-.168.264-.156.384-.432l.096-.264-2.52-5.784h2.04l.84 2.304q.156.432.276.888.132.444.264.936h.048q.108-.456.24-.912.144-.456.276-.912l.72-2.304h1.944l-2.256 5.904q-.24.612-.504 1.056t-.612.732q-.336.288-.78.42-.432.144-1.02.144z"/>
  </g>
  <rect transform="translate(144.21,4)" width="110.58" height="38" fill="#00909a"/>
  <g transform="translate(144.09,6.048)" fill="#979797" stroke-width="0" aria-label="StagingArea">
   <path d="m33.658 15.144q-.768 0-1.572-.264-.792-.276-1.452-.852l1.176-1.416q.444.336.948.552.504.204 1.044.204.468 0 .66-.132.204-.132.204-.324 0-.168-.084-.276-.072-.12-.216-.204-.144-.096-.36-.18-.204-.084-.468-.192l-.972-.408q-.336-.12-.636-.312-.3-.204-.528-.468-.216-.276-.348-.624t-.132-.768q0-.504.216-.936.216-.444.6-.768.396-.336.936-.528.552-.192 1.224-.192.696 0 1.392.252t1.272.792l-1.032 1.296q-.42-.276-.816-.42-.384-.144-.936-.144-.348 0-.564.132-.204.12-.204.396 0 .132.084.24.084.096.24.18t.384.168.516.192l.9.372q.792.288 1.212.804.432.516.432 1.332 0 .492-.204.948t-.6.804q-.396.336-.984.54-.576.204-1.332.204z"/>
   <path d="m41.934 15.144q-.744 0-1.26-.192-.504-.192-.828-.54-.312-.36-.456-.852-.144-.504-.144-1.104v-1.848h-1.44v-1.536l1.536-.072.264-1.8h1.704v1.8h2.376v1.608h-2.376v1.812q0 .648.288.888.3.228.876.228.312 0 .576-.048.276-.06.516-.144l.36 1.488q-.396.108-.888.204-.492.108-1.104.108z"/>
   <path d="m47.089 15.144q-.468 0-.828-.144-.36-.156-.612-.408t-.384-.588q-.12-.336-.12-.708 0-.504.204-.888.216-.384.66-.648.456-.276 1.176-.432t1.752-.216q-.06-.324-.36-.468-.288-.156-.792-.156-.384 0-.792.132-.396.12-.936.372l-.72-1.344q.684-.384 1.392-.588t1.464-.204q.636 0 1.152.168.528.156.888.504.372.336.564.876.204.528.204 1.26v3.336h-1.68l-.144-.624h-.048q-.444.324-.96.552-.516.216-1.08.216zm.672-1.584q.36 0 .648-.132.288-.144.528-.324v-.768q-.552.024-.912.096-.348.06-.552.168t-.288.24q-.072.132-.072.288 0 .432.648.432z"/>
   <path d="m54.92 17.472q-.564 0-1.056-.084-.48-.072-.852-.252t-.588-.468q-.204-.276-.204-.684 0-.72.912-1.152v-.048q-.252-.168-.432-.408-.168-.24-.168-.624 0-.312.204-.612t.516-.516v-.048q-.348-.216-.588-.612-.228-.396-.228-.924 0-.552.216-.96.216-.42.588-.684.372-.276.84-.408.48-.132 1.008-.132.564 0 1.02.144h2.424v1.488h-1.08q.06.108.108.276.06.168.06.348 0 .528-.192.912-.192.372-.54.612-.336.24-.804.36-.456.108-.996.108-.348 0-.756-.084-.108.084-.156.156-.036.06-.036.192 0 .204.216.288.216.072.72.072h1.02q1.2 0 1.848.372.648.36.648 1.188 0 .492-.264.888-.252.408-.732.696t-1.164.444q-.672.156-1.512.156zm.168-5.592q.3 0 .516-.204t.216-.636q0-.42-.216-.612-.216-.204-.516-.204t-.516.204q-.204.192-.204.612 0 .432.204.636.216.204.516.204zm.156 4.32q.612 0 .996-.156.396-.144.396-.396 0-.24-.24-.3t-.696-.06h-.6q-.348 0-.552-.024-.204-.012-.36-.048-.156.108-.228.204t-.072.228q0 .288.372.42t.984.132z"/>
   <path d="m62.056 15v-4.392h-2.28v-1.608h4.344v6zm.96-6.816q-.576 0-.948-.324-.372-.336-.372-.876t.372-.876q.372-.348.948-.348t.948.348q.372.336.372.876t-.372.876q-.372.324-.948.324z"/>
   <path d="m66.851 15v-6h1.68l.144.72h.048q.36-.348.852-.6.492-.264 1.152-.264.996 0 1.452.672.456.66.456 1.776v3.696h-2.064v-3.432q0-.504-.156-.732-.144-.228-.54-.228-.288 0-.504.12t-.456.336v3.936z"/>
   <path d="m76.506 17.472q-.564 0-1.056-.084-.48-.072-.852-.252t-.588-.468q-.204-.276-.204-.684 0-.72.912-1.152v-.048q-.252-.168-.432-.408-.168-.24-.168-.624 0-.312.204-.612t.516-.516v-.048q-.348-.216-.588-.612-.228-.396-.228-.924 0-.552.216-.96.216-.42.588-.684.372-.276.84-.408.48-.132 1.008-.132.564 0 1.02.144h2.424v1.488h-1.08q.06.108.108.276.06.168.06.348 0 .528-.192.912-.192.372-.54.612-.336.24-.804.36-.456.108-.996.108-.348 0-.756-.084-.108.084-.156.156-.036.06-.036.192 0 .204.216.288.216.072.72.072h1.02q1.2 0 1.848.372.648.36.648 1.188 0 .492-.264.888-.252.408-.732.696t-1.164.444q-.672.156-1.512.156zm.168-5.592q.3 0 .516-.204t.216-.636q0-.42-.216-.612-.216-.204-.516-.204t-.516.204q-.204.192-.204.612 0 .432.204.636.216.204.516.204zm.156 4.32q.612 0 .996-.156.396-.144.396-.396 0-.24-.24-.3t-.696-.06h-.6q-.348 0-.552-.024-.204-.012-.36-.048-.156.108-.228.204t-.072.228q0 .288.372.42t.984.132z"/>
   <path d="m43.887 24.208-.12.54h1.392l-.12-.54q-.132-.564-.288-1.212-.144-.66-.276-1.26h-.048q-.132.6-.276 1.26-.132.648-.264 1.212zm-2.988 3.792 2.352-7.8h2.496l2.352 7.8h-2.184l-.384-1.656h-2.136l-.384 1.656z"/>
   <path d="m49.343 28v-6h1.692l.156 1.272h.048q.432-.744 1.044-1.08t1.296-.336q.42 0 .648.072.24.06.492.168l-.408 1.728q-.276-.084-.504-.12-.216-.048-.54-.048-.516 0-1.02.312-.504.3-.84 1.056v2.976z"/>
   <path d="m59.25 28.144q-.708 0-1.332-.204-.612-.216-1.068-.612-.444-.408-.708-.996-.252-.588-.252-1.332 0-.732.264-1.32t.696-.984q.444-.408 1.008-.624.576-.216 1.176-.216.708 0 1.236.228.54.228.9.624t.54.924.18 1.128q0 .276-.036.516-.024.24-.048.348h-3.852q.132.504.528.732t1.056.228q.36 0 .696-.084.348-.096.744-.276l.672 1.224q-.54.348-1.188.528-.648.168-1.212.168zm-.144-4.728q-.888 0-1.14.864h2.1q-.132-.864-.96-.864z"/>
   <path d="m65.077 28.144q-.468 0-.828-.144-.36-.156-.612-.408t-.384-.588q-.12-.336-.12-.708 0-.504.204-.888.216-.384.66-.648.456-.276 1.176-.432t1.752-.216q-.06-.324-.36-.468-.288-.156-.792-.156-.384 0-.792.132-.396.12-.936.372l-.72-1.344q.684-.384 1.392-.588t1.464-.204q.636 0 1.152.168.528.156.888.504.372.336.564.876.204.528.204 1.26v3.336h-1.68l-.144-.624h-.048q-.444.324-.96.552-.516.216-1.08.216zm.672-1.584q.36 0 .648-.132.288-.144.528-.324v-.768q-.552.024-.912.096-.348.06-.552.168t-.288.24q-.072.132-.072.288 0 .432.648.432z"/>
  </g>
  <rect transform="translate(284.95,4)" x=".5" y=".5" width="109.58" height="37" fill="#efefe7" stroke="#979797"/>
  <g transform="translate(284.56,3.4608)" fill="#979797" stroke-width="0" aria-label=".git directory(Repository)">
   <path d="m8.0229 16.175q-.348 0-.636-.12t-.492-.336-.324-.492q-.108-.288-.108-.612t.108-.6q.12-.288.324-.492.204-.216.492-.336.288-.132.636-.132t.636.132q.288.12.492.336.204.204.312.492.12.276.12.6t-.12.612q-.108.276-.312.492t-.492.336-.636.12z"/>
   <path d="m14.846 18.503q-.564 0-1.056-.084-.48-.072-.852-.252t-.588-.468q-.204-.276-.204-.684 0-.72.912-1.152v-.048q-.252-.168-.432-.408-.168-.24-.168-.624 0-.312.204-.612t.516-.516v-.048q-.348-.216-.588-.612-.228-.396-.228-.924 0-.552.216-.96.216-.42.588-.684.372-.276.84-.408.48-.132 1.008-.132.564 0 1.02.144h2.424v1.488h-1.08q.06.108.108.276.06.168.06.348 0 .528-.192.912-.192.372-.54.612-.336.24-.804.36-.456.108-.996.108-.348 0-.756-.084-.108.084-.156.156-.036.06-.036.192 0 .204.216.288.216.072.72.072h1.02q1.2 0 1.848.372.648.36.648 1.188 0 .492-.264.888-.252.408-.732.696t-1.164.444q-.672.156-1.512.156zm.168-5.592q.3 0 .516-.204t.216-.636q0-.42-.216-.612-.216-.204-.516-.204t-.516.204q-.204.192-.204.612 0 .432.204.636.216.204.516.204zm.156 4.32q.612 0 .996-.156.396-.144.396-.396 0-.24-.24-.3t-.696-.06h-.6q-.348 0-.552-.024-.204-.012-.36-.048-.156.108-.228.204t-.072.228q0 .288.372.42t.984.132z"/>
   <path d="m21.981 16.031v-4.392h-2.28v-1.608h4.344v6zm.96-6.816q-.576 0-.948-.324-.372-.336-.372-.876t.372-.876q.372-.348.948-.348t.948.348q.372.336.372.876t-.372.876q-.372.324-.948.324z"/>
   <path d="m30.641 16.175q-.744 0-1.26-.192-.504-.192-.828-.54-.312-.36-.456-.852-.144-.504-.144-1.104v-1.848h-1.44v-1.536l1.536-.072.264-1.8h1.704v1.8h2.376v1.608h-2.376v1.812q0 .648.288.888.3.228.876.228.312 0 .576-.048.276-.06.516-.144l.36 1.488q-.396.108-.888.204-.492.108-1.104.108z"/>
   <path d="m43.411 16.175q-.576 0-1.044-.216-.456-.216-.78-.624t-.504-.984q-.18-.588-.18-1.32t.216-1.32.564-.984q.348-.408.804-.624t.924-.216q.48 0 .804.156t.6.444h.048l-.096-.864v-1.944h2.064v8.352h-1.68l-.144-.552h-.048q-.312.312-.732.504-.408.192-.816.192zm.54-1.68q.252 0 .444-.084.204-.096.372-.348v-2.208q-.18-.168-.384-.228-.192-.06-.408-.06-.384 0-.672.324t-.288 1.116q0 .816.24 1.152.252.336.696.336z"/>
   <path d="m50.763 16.031v-4.392h-2.28v-1.608h4.344v6zm.96-6.816q-.576 0-.948-.324-.372-.336-.372-.876t.372-.876q.372-.348.948-.348t.948.348q.372.336.372.876t-.372.876q-.372.324-.948.324z"/>
   <path d="m56.038 16.031v-6h1.692l.156 1.272h.048q.432-.744 1.044-1.08t1.296-.336q.42 0 .648.072.24.06.492.168l-.408 1.728q-.276-.084-.504-.12-.216-.048-.54-.048-.516 0-1.02.312-.504.3-.84 1.056v2.976z"/>
   <path d="m65.945 16.175q-.708 0-1.332-.204-.612-.216-1.068-.612-.444-.408-.708-.996-.252-.588-.252-1.332 0-.732.264-1.32t.696-.984q.444-.408 1.008-.624.576-.216 1.176-.216.708 0 1.236.228.54.228.9.624t.54.924.18 1.128q0 .276-.036.516-.024.24-.048.348h-3.852q.132.504.528.732t1.056.228q.36 0 .696-.084.348-.096.744-.276l.672 1.224q-.54.348-1.188.528-.648.168-1.212.168zm-.144-4.728q-.888 0-1.14.864h2.1q-.132-.864-.96-.864z"/>
   <path d="m73.285 16.175q-.708 0-1.332-.204-.612-.216-1.068-.612-.444-.408-.708-.996-.252-.588-.252-1.332t.288-1.332.768-.984q.492-.408 1.128-.612.636-.216 1.332-.216.708 0 1.296.216t.972.576l-.936 1.272q-.336-.228-.636-.312-.288-.096-.576-.096-.684 0-1.104.408-.42.396-.42 1.08t.408 1.092q.408.396 1.044.396.444 0 .804-.156t.672-.348l.816 1.296q-.564.456-1.236.66-.66.204-1.26.204z"/>
   <path d="m81.008 16.175q-.744 0-1.26-.192-.504-.192-.828-.54-.312-.36-.456-.852-.144-.504-.144-1.104v-1.848h-1.44v-1.536l1.536-.072.264-1.8h1.704v1.8h2.376v1.608h-2.376v1.812q0 .648.288.888.3.228.876.228.312 0 .576-.048.276-.06.516-.144l.36 1.488q-.396.108-.888.204-.492.108-1.104.108z"/>
   <path d="m87.171 16.175q-.6 0-1.164-.204-.552-.216-.984-.612-.432-.408-.696-.996-.252-.588-.252-1.332t.252-1.332q.264-.588.696-.984.432-.408.984-.612.564-.216 1.164-.216.588 0 1.14.216.564.204.996.612.432.396.696.984t.264 1.332-.264 1.332-.696.996q-.432.396-.996.612-.552.204-1.14.204zm0-1.656q.528 0 .756-.396.228-.408.228-1.092t-.228-1.08q-.228-.408-.756-.408t-.756.408q-.228.396-.228 1.08t.228 1.092q.228.396.756.396z"/>
   <path d="m92.015 16.031v-6h1.692l.156 1.272h.048q.432-.744 1.044-1.08t1.296-.336q.42 0 .648.072.24.06.492.168l-.408 1.728q-.276-.084-.504-.12-.216-.048-.54-.048-.516 0-1.02.312-.504.3-.84 1.056v2.976z"/>
   <path d="m99.726 18.287q-.276 0-.516-.036-.24-.024-.444-.084l.36-1.56q.228.072.432.072.48 0 .732-.168.264-.156.384-.432l.096-.264-2.52-5.784h2.04l.84 2.304q.156.432.276.888.132.444.264.936h.048q.108-.456.24-.912.144-.456.276-.912l.72-2.304h1.944l-2.256 5.904q-.24.612-.504 1.056t-.612.732q-.336.288-.78.42-.432.144-1.02.144z"/>
   <path d="m16.142 32.191q-1.152-1.068-1.824-2.436-.66-1.38-.66-3.06t.66-3.048q.672-1.38 1.824-2.448l1.14.888q-.504.528-.876 1.056-.36.528-.6 1.092-.228.552-.336 1.164-.108.6-.108 1.296t.108 1.308q.108.6.336 1.164.24.552.6 1.08.372.528.876 1.056z"/>
   <path d="m19.509 30.031v-7.8h2.904q.624 0 1.188.12.576.12.996.408.432.288.684.78.252.48.252 1.212 0 .84-.348 1.392-.336.552-.912.864l1.692 3.024h-2.304l-1.344-2.616h-.744v2.616zm2.064-4.248h.696q1.248 0 1.248-1.032 0-.504-.324-.696-.312-.192-.924-.192h-.696z"/>
   <path d="m29.969 30.175q-.708 0-1.332-.204-.612-.216-1.068-.612-.444-.408-.708-.996-.252-.588-.252-1.332 0-.732.264-1.32t.696-.984q.444-.408 1.008-.624.576-.216 1.176-.216.708 0 1.236.228.54.228.9.624t.54.924.18 1.128q0 .276-.036.516-.024.24-.048.348h-3.852q.132.504.528.732t1.056.228q.36 0 .696-.084.348-.096.744-.276l.672 1.224q-.54.348-1.188.528-.648.168-1.212.168zm-.144-4.728q-.888 0-1.14.864h2.1q-.132-.864-.96-.864z"/>
   <path d="m33.972 32.143v-8.112h1.68l.144.552h.048q.348-.312.78-.504.444-.192.9-.192.54 0 .984.216t.744.612q.312.396.48.96t.168 1.26q0 .78-.216 1.38t-.576 1.02q-.348.408-.816.624-.456.216-.948.216-.756 0-1.356-.6h-.048l.096.912v1.656zm2.88-3.648q.192 0 .36-.072.168-.084.288-.264.132-.18.204-.468.084-.3.084-.732 0-.744-.228-1.068-.216-.324-.66-.324-.24 0-.444.096t-.42.336v2.208q.192.168.396.228.216.06.42.06z"/>
   <path d="m43.999 30.175q-.6 0-1.164-.204-.552-.216-.984-.612-.432-.408-.696-.996-.252-.588-.252-1.332t.252-1.332q.264-.588.696-.984.432-.408.984-.612.564-.216 1.164-.216.588 0 1.14.216.564.204.996.612.432.396.696.984t.264 1.332-.264 1.332-.696.996q-.432.396-.996.612-.552.204-1.14.204zm0-1.656q.528 0 .756-.396.228-.408.228-1.092t-.228-1.08q-.228-.408-.756-.408t-.756.408q-.228.396-.228 1.08t.228 1.092q.228.396.756.396z"/>
   <path d="m51.075 30.175q-.78 0-1.572-.264-.78-.264-1.356-.648l.864-1.272q.576.336 1.176.504t1.176.168q.396 0 .564-.096.18-.096.18-.264 0-.108-.072-.18-.06-.072-.216-.12-.144-.06-.408-.108-.252-.06-.624-.144-.624-.132-1.056-.312-.42-.192-.696-.432-.264-.24-.384-.528-.12-.3-.12-.648 0-.444.204-.804t.576-.612.9-.384q.528-.144 1.176-.144.852 0 1.512.276.672.264 1.152.564l-.912 1.224q-.468-.276-.972-.408-.504-.144-.972-.144-.288 0-.456.084t-.168.252q0 .096.06.156.072.06.216.12.144.048.384.096t.588.132q.672.156 1.116.336.456.18.72.42.276.228.384.528.108.288.108.66 0 .42-.204.792-.192.36-.588.636-.384.264-.96.42-.564.144-1.32.144z"/>
   <path d="m57.958 30.031v-4.392h-2.28v-1.608h4.344v6zm.96-6.816q-.576 0-.948-.324-.372-.336-.372-.876t.372-.876q.372-.348.948-.348t.948.348q.372.336.372.876t-.372.876q-.372.324-.948.324z"/>
   <path d="m66.617 30.175q-.744 0-1.26-.192-.504-.192-.828-.54-.312-.36-.456-.852-.144-.504-.144-1.104v-1.848h-1.44v-1.536l1.536-.072.264-1.8h1.704v1.8h2.376v1.608h-2.376v1.812q0 .648.288.888.3.228.876.228.312 0 .576-.048.276-.06.516-.144l.36 1.488q-.396.108-.888.204-.492.108-1.104.108z"/>
   <path d="m72.781 30.175q-.6 0-1.164-.204-.552-.216-.984-.612-.432-.408-.696-.996-.252-.588-.252-1.332t.252-1.332q.264-.588.696-.984.432-.408.984-.612.564-.216 1.164-.216.588 0 1.14.216.564.204.996.612.432.396.696.984t.264 1.332-.264 1.332-.696.996q-.432.396-.996.612-.552.204-1.14.204zm0-1.656q.528 0 .756-.396.228-.408.228-1.092t-.228-1.08q-.228-.408-.756-.408t-.756.408q-.228.396-.228 1.08t.228 1.092q.228.396.756.396z"/>
   <path d="m77.624 30.031v-6h1.692l.156 1.272h.048q.432-.744 1.044-1.08t1.296-.336q.42 0 .648.072.24.06.492.168l-.408 1.728q-.276-.084-.504-.12-.216-.048-.54-.048-.516 0-1.02.312-.504.3-.84 1.056v2.976z"/>
   <path d="m85.335 32.287q-.276 0-.516-.036-.24-.024-.444-.084l.36-1.56q.228.072.432.072.48 0 .732-.168.264-.156.384-.432l.096-.264-2.52-5.784h2.04l.84 2.304q.156.432.276.888.132.444.264.936h.048q.108-.456.24-.912.144-.456.276-.912l.72-2.304h1.944l-2.256 5.904q-.24.612-.504 1.056t-.612.732q-.336.288-.78.42-.432.144-1.02.144z"/>
   <path d="m93.443 32.191-1.14-.888q.504-.528.864-1.056.372-.528.6-1.08.24-.564.348-1.164.108-.612.108-1.308t-.108-1.296q-.108-.612-.348-1.164-.228-.564-.6-1.092-.36-.528-.864-1.056l1.14-.888q1.152 1.068 1.812 2.448.672 1.368.672 3.048t-.672 3.06q-.66 1.368-1.812 2.436z"/>
  </g>
 </g>
 <path d="m128.44 70.93h211v21.949h-211v6.5082l-68.943-17.387 68.943-17.451z" fill="#8f8981"/>
 <g id="Checkout-the-project" transform="translate(0 -.508)" fill="white" fill-rule="evenodd" stroke-width="0" style="font-feature-settings:normal;font-variant-caps:normal;font-variant-ligatures:normal;font-variant-numeric:normal" aria-label="Checkout the project">
  <path d="m143.93 86.144q-.732 0-1.404-.24-.66-.252-1.176-.744-.504-.504-.816-1.248-.3-.756-.3-1.752 0-.984.3-1.74.3-.768.816-1.284.516-.528 1.212-.804t1.488-.276q.756 0 1.368.312.612.3 1.032.696l-1.128 1.272q-.276-.24-.576-.372t-.696-.132q-.36 0-.672.156t-.54.444-.36.708-.132.948q0 1.104.504 1.692t1.296.588q.384 0 .696-.168.324-.18.576-.456l1.128 1.248q-.492.576-1.164.864-.66.288-1.452.288z" style="font-feature-settings:normal;font-variant-caps:normal;font-variant-ligatures:normal;font-variant-numeric:normal"/>
  <path d="m147.6 86v-8.352h2.064v1.944l-.12 1.056h.048q.288-.288.756-.54t1.14-.252q.984 0 1.44.672.456.66.456 1.776v3.696h-2.064v-3.432q0-.504-.156-.732-.144-.228-.54-.228-.288 0-.504.12t-.456.336v3.936z" style="font-feature-settings:normal;font-variant-caps:normal;font-variant-ligatures:normal;font-variant-numeric:normal"/>
  <path d="m157.98 86.144q-.708 0-1.332-.204-.612-.216-1.068-.612-.444-.408-.708-.996-.252-.588-.252-1.332 0-.732.264-1.32t.696-.984q.444-.408 1.008-.624.576-.216 1.176-.216.708 0 1.236.228.54.228.9.624t.54.924.18 1.128q0 .276-.036.516-.024.24-.048.348h-3.852q.132.504.528.732t1.056.228q.36 0 .696-.084.348-.096.744-.276l.672 1.224q-.54.348-1.188.528-.648.168-1.212.168zm-.144-4.728q-.888 0-1.14.864h2.1q-.132-.864-.96-.864z" style="font-feature-settings:normal;font-variant-caps:normal;font-variant-ligatures:normal;font-variant-numeric:normal"/>
  <path d="m165.32 86.144q-.708 0-1.332-.204-.612-.216-1.068-.612-.444-.408-.708-.996-.252-.588-.252-1.332t.288-1.332.768-.984q.492-.408 1.128-.612.636-.216 1.332-.216.708 0 1.296.216t.972.576l-.936 1.272q-.336-.228-.636-.312-.288-.096-.576-.096-.684 0-1.104.408-.42.396-.42 1.08t.408 1.092q.408.396 1.044.396.444 0 .804-.156t.672-.348l.816 1.296q-.564.456-1.236.66-.66.204-1.26.204z" style="font-feature-settings:normal;font-variant-caps:normal;font-variant-ligatures:normal;font-variant-numeric:normal"/>
  <path d="m169.18 86v-8.352h2.064v4.488h.048l1.824-2.136h2.232l-2.232 2.472 2.376 3.528h-2.232l-1.32-2.232-.696.768v1.464z" style="font-feature-settings:normal;font-variant-caps:normal;font-variant-ligatures:normal;font-variant-numeric:normal"/>
  <path d="m179.21 86.144q-.6 0-1.164-.204-.552-.216-.984-.612-.432-.408-.696-.996-.252-.588-.252-1.332t.252-1.332q.264-.588.696-.984.432-.408.984-.612.564-.216 1.164-.216.588 0 1.14.216.564.204.996.612.432.396.696.984t.264 1.332-.264 1.332-.696.996q-.432.396-.996.612-.552.204-1.14.204zm0-1.656q.528 0 .756-.396.228-.408.228-1.092t-.228-1.08q-.228-.408-.756-.408t-.756.408q-.228.396-.228 1.08t.228 1.092q.228.396.756.396z" style="font-feature-settings:normal;font-variant-caps:normal;font-variant-ligatures:normal;font-variant-numeric:normal"/>
  <path d="m185.37 86.144q-1.008 0-1.452-.66-.444-.672-.444-1.788v-3.696h2.064v3.432q0 .504.132.732.144.228.552.228.264 0 .456-.096.204-.108.444-.432v-3.864h2.064v6h-1.68l-.144-.792h-.048q-.384.432-.852.684-.456.252-1.092.252z" style="font-feature-settings:normal;font-variant-caps:normal;font-variant-ligatures:normal;font-variant-numeric:normal"/>
  <path d="m194.63 86.144q-.744 0-1.26-.192-.504-.192-.828-.54-.312-.36-.456-.852-.144-.504-.144-1.104v-1.848h-1.44v-1.536l1.536-.072.264-1.8h1.704v1.8h2.376v1.608h-2.376v1.812q0 .648.288.888.3.228.876.228.312 0 .576-.048.276-.06.516-.144l.36 1.488q-.396.108-.888.204-.492.108-1.104.108z" style="font-feature-settings:normal;font-variant-caps:normal;font-variant-ligatures:normal;font-variant-numeric:normal"/>
  <path d="m209.02 86.144q-.744 0-1.26-.192-.504-.192-.828-.54-.312-.36-.456-.852-.144-.504-.144-1.104v-1.848h-1.44v-1.536l1.536-.072.264-1.8h1.704v1.8h2.376v1.608h-2.376v1.812q0 .648.288.888.3.228.876.228.312 0 .576-.048.276-.06.516-.144l.36 1.488q-.396.108-.888.204-.492.108-1.104.108z" style="font-feature-settings:normal;font-variant-caps:normal;font-variant-ligatures:normal;font-variant-numeric:normal"/>
  <path d="m212.35 86v-8.352h2.064v1.944l-.12 1.056h.048q.288-.288.756-.54t1.14-.252q.984 0 1.44.672.456.66.456 1.776v3.696h-2.064v-3.432q0-.504-.156-.732-.144-.228-.54-.228-.288 0-.504.12t-.456.336v3.936z" style="font-feature-settings:normal;font-variant-caps:normal;font-variant-ligatures:normal;font-variant-numeric:normal"/>
  <path d="m222.74 86.144q-.708 0-1.332-.204-.612-.216-1.068-.612-.444-.408-.708-.996-.252-.588-.252-1.332 0-.732.264-1.32t.696-.984q.444-.408 1.008-.624.576-.216 1.176-.216.708 0 1.236.228.54.228.9.624t.54.924.18 1.128q0 .276-.036.516-.024.24-.048.348h-3.852q.132.504.528.732t1.056.228q.36 0 .696-.084.348-.096.744-.276l.672 1.224q-.54.348-1.188.528-.648.168-1.212.168zm-.144-4.728q-.888 0-1.14.864h2.1q-.132-.864-.96-.864z" style="font-feature-settings:normal;font-variant-caps:normal;font-variant-ligatures:normal;font-variant-numeric:normal"/>
  <path d="m233.94 88.112v-8.112h1.68l.144.552h.048q.348-.312.78-.504.444-.192.9-.192.54 0 .984.216t.744.612q.312.396.48.96t.168 1.26q0 .78-.216 1.38t-.576 1.02q-.348.408-.816.624-.456.216-.948.216-.756 0-1.356-.6h-.048l.096.912v1.656zm2.88-3.648q.192 0 .36-.072.168-.084.288-.264.132-.18.204-.468.084-.3.084-.732 0-.744-.228-1.068-.216-.324-.66-.324-.24 0-.444.096t-.42.336v2.208q.192.168.396.228.216.06.42.06z" style="font-feature-settings:normal;font-variant-caps:normal;font-variant-ligatures:normal;font-variant-numeric:normal"/>
  <path d="m241.61 86v-6h1.692l.156 1.272h.048q.432-.744 1.044-1.08t1.296-.336q.42 0 .648.072.24.06.492.168l-.408 1.728q-.276-.084-.504-.12-.216-.048-.54-.048-.516 0-1.02.312-.504.3-.84 1.056v2.976z" style="font-feature-settings:normal;font-variant-caps:normal;font-variant-ligatures:normal;font-variant-numeric:normal"/>
  <path d="m251.16 86.144q-.6 0-1.164-.204-.552-.216-.984-.612-.432-.408-.696-.996-.252-.588-.252-1.332t.252-1.332q.264-.588.696-.984.432-.408.984-.612.564-.216 1.164-.216.588 0 1.14.216.564.204.996.612.432.396.696.984t.264 1.332-.264 1.332-.696.996q-.432.396-.996.612-.552.204-1.14.204zm0-1.656q.528 0 .756-.396.228-.408.228-1.092t-.228-1.08q-.228-.408-.756-.408t-.756.408q-.228.396-.228 1.08t.228 1.092q.228.396.756.396z" style="font-feature-settings:normal;font-variant-caps:normal;font-variant-ligatures:normal;font-variant-numeric:normal"/>
  <path d="m257.1 88.256q-.588 0-1.044-.12-.456-.108-.852-.288l.588-1.464q.384.168.648.216.276.048.516.048.552 0 .756-.264.216-.252.216-.864v-3.912h-2.28v-1.608h4.344v5.448q0 .552-.132 1.056t-.468.888q-.324.396-.888.624-.552.24-1.404.24zm1.788-9.072q-.576 0-.948-.324-.372-.336-.372-.876t.372-.876q.372-.348.948-.348t.948.348q.372.336.372.876t-.372.876q-.372.324-.948.324z" style="font-feature-settings:normal;font-variant-caps:normal;font-variant-ligatures:normal;font-variant-numeric:normal"/>
  <path d="m265.91 86.144q-.708 0-1.332-.204-.612-.216-1.068-.612-.444-.408-.708-.996-.252-.588-.252-1.332 0-.732.264-1.32t.696-.984q.444-.408 1.008-.624.576-.216 1.176-.216.708 0 1.236.228.54.228.9.624t.54.924.18 1.128q0 .276-.036.516-.024.24-.048.348h-3.852q.132.504.528.732t1.056.228q.36 0 .696-.084.348-.096.744-.276l.672 1.224q-.54.348-1.188.528-.648.168-1.212.168zm-.144-4.728q-.888 0-1.14.864h2.1q-.132-.864-.96-.864z" style="font-feature-settings:normal;font-variant-caps:normal;font-variant-ligatures:normal;font-variant-numeric:normal"/>
  <path d="m273.25 86.144q-.708 0-1.332-.204-.612-.216-1.068-.612-.444-.408-.708-.996-.252-.588-.252-1.332t.288-1.332.768-.984q.492-.408 1.128-.612.636-.216 1.332-.216.708 0 1.296.216t.972.576l-.936 1.272q-.336-.228-.636-.312-.288-.096-.576-.096-.684 0-1.104.408-.42.396-.42 1.08t.408 1.092q.408.396 1.044.396.444 0 .804-.156t.672-.348l.816 1.296q-.564.456-1.236.66-.66.204-1.26.204z" style="font-feature-settings:normal;font-variant-caps:normal;font-variant-ligatures:normal;font-variant-numeric:normal"/>
  <path d="m280.97 86.144q-.744 0-1.26-.192-.504-.192-.828-.54-.312-.36-.456-.852-.144-.504-.144-1.104v-1.848h-1.44v-1.536l1.536-.072.264-1.8h1.704v1.8h2.376v1.608h-2.376v1.812q0 .648.288.888.3.228.876.228.312 0 .576-.048.276-.06.516-.144l.36 1.488q-.396.108-.888.204-.492.108-1.104.108z" style="font-feature-settings:normal;font-variant-caps:normal;font-variant-ligatures:normal;font-variant-numeric:normal"/>
 </g>
 <path d="m131.27 144.94h-71.93v-22.077h71.93v-6.5082l68.075 17.514-68.075 17.579z" fill="#8f8981"/>
 <g id="Stage-Fixes" transform="translate(0 -.616)" fill="white" fill-rule="evenodd" stroke-width="0" style="font-feature-settings:normal;font-variant-caps:normal;font-variant-ligatures:normal;font-variant-numeric:normal" aria-label="Stage Fixes">
  <path d="m74.275 138.14q-.768 0-1.572-.264-.792-.276-1.452-.852l1.176-1.416q.444.336.948.552.504.204 1.044.204.468 0 .66-.132.204-.132.204-.324 0-.168-.084-.276-.072-.12-.216-.204-.144-.096-.36-.18-.204-.084-.468-.192l-.972-.408q-.336-.12-.636-.312-.3-.204-.528-.468-.216-.276-.348-.624t-.132-.768q0-.504.216-.936.216-.444.6-.768.396-.336.936-.528.552-.192 1.224-.192.696 0 1.392.252t1.272.792l-1.032 1.296q-.42-.276-.816-.42-.384-.144-.936-.144-.348 0-.564.132-.204.12-.204.396 0 .132.084.24.084.096.24.18t.384.168.516.192l.9.372q.792.288 1.212.804.432.516.432 1.332 0 .492-.204.948t-.6.804q-.396.336-.984.54-.576.204-1.332.204z" style="font-feature-settings:normal;font-variant-caps:normal;font-variant-ligatures:normal;font-variant-numeric:normal"/>
  <path d="m82.55 138.14q-.744 0-1.26-.192-.504-.192-.828-.54-.312-.36-.456-.852-.144-.504-.144-1.104v-1.848h-1.44v-1.536l1.536-.072.264-1.8h1.704v1.8h2.376v1.608h-2.376v1.812q0 .648.288.888.3.228.876.228.312 0 .576-.048.276-.06.516-.144l.36 1.488q-.396.108-.888.204-.492.108-1.104.108z" style="font-feature-settings:normal;font-variant-caps:normal;font-variant-ligatures:normal;font-variant-numeric:normal"/>
  <path d="m87.705 138.14q-.468 0-.828-.144-.36-.156-.612-.408t-.384-.588q-.12-.336-.12-.708 0-.504.204-.888.216-.384.66-.648.456-.276 1.176-.432t1.752-.216q-.06-.324-.36-.468-.288-.156-.792-.156-.384 0-.792.132-.396.12-.936.372l-.72-1.344q.684-.384 1.392-.588t1.464-.204q.636 0 1.152.168.528.156.888.504.372.336.564.876.204.528.204 1.26v3.336h-1.68l-.144-.624h-.048q-.444.324-.96.552-.516.216-1.08.216zm.672-1.584q.36 0 .648-.132.288-.144.528-.324v-.768q-.552.024-.912.096-.348.06-.552.168t-.288.24q-.072.132-.072.288 0 .432.648.432z" style="font-feature-settings:normal;font-variant-caps:normal;font-variant-ligatures:normal;font-variant-numeric:normal"/>
  <path d="m95.537 140.47q-.564 0-1.056-.084-.48-.072-.852-.252t-.588-.468q-.204-.276-.204-.684 0-.72.912-1.152v-.048q-.252-.168-.432-.408-.168-.24-.168-.624 0-.312.204-.612t.516-.516v-.048q-.348-.216-.588-.612-.228-.396-.228-.924 0-.552.216-.96.216-.42.588-.684.372-.276.84-.408.48-.132 1.008-.132.564 0 1.02.144h2.424v1.488h-1.08q.06.108.108.276.06.168.06.348 0 .528-.192.912-.192.372-.54.612-.336.24-.804.36-.456.108-.996.108-.348 0-.756-.084-.108.084-.156.156-.036.06-.036.192 0 .204.216.288.216.072.72.072h1.02q1.2 0 1.848.372.648.36.648 1.188 0 .492-.264.888-.252.408-.732.696t-1.164.444q-.672.156-1.512.156zm.168-5.592q.3 0 .516-.204t.216-.636q0-.42-.216-.612-.216-.204-.516-.204t-.516.204q-.204.192-.204.612 0 .432.204.636.216.204.516.204zm.156 4.32q.612 0 .996-.156.396-.144.396-.396 0-.24-.24-.3t-.696-.06h-.6q-.348 0-.552-.024-.204-.012-.36-.048-.156.108-.228.204t-.072.228q0 .288.372.42t.984.132z" style="font-feature-settings:normal;font-variant-caps:normal;font-variant-ligatures:normal;font-variant-numeric:normal"/>
  <path d="m103.46 138.14q-.708 0-1.332-.204-.612-.216-1.068-.612-.444-.408-.708-.996-.252-.588-.252-1.332 0-.732.264-1.32t.696-.984q.444-.408 1.008-.624.576-.216 1.176-.216.708 0 1.236.228.54.228.9.624t.54.924.18 1.128q0 .276-.036.516-.024.24-.048.348h-3.852q.132.504.528.732t1.056.228q.36 0 .696-.084.348-.096.744-.276l.672 1.224q-.54.348-1.188.528-.648.168-1.212.168zm-.144-4.728q-.888 0-1.14.864h2.1q-.132-.864-.96-.864z" style="font-feature-settings:normal;font-variant-caps:normal;font-variant-ligatures:normal;font-variant-numeric:normal"/>
  <path d="m115.02 138v-7.8h5.34v1.728h-3.276v1.488h2.808v1.728h-2.808v2.856z" style="font-feature-settings:normal;font-variant-caps:normal;font-variant-ligatures:normal;font-variant-numeric:normal"/>
  <path d="m124.26 138v-4.392h-2.28v-1.608h4.344v6zm.96-6.816q-.576 0-.948-.324-.372-.336-.372-.876t.372-.876q.372-.348.948-.348t.948.348q.372.336.372.876t-.372.876q-.372.324-.948.324z" style="font-feature-settings:normal;font-variant-caps:normal;font-variant-ligatures:normal;font-variant-numeric:normal"/>
  <path d="m128.61 138 2.004-3.12-1.884-2.88h2.208l.492.84q.132.252.288.516.168.264.3.516h.048q.096-.252.216-.516t.216-.516l.396-.84h2.148l-1.896 3.12 2.004 2.88h-2.208l-.552-.84q-.156-.252-.324-.516t-.324-.516h-.048q-.12.252-.252.516-.12.252-.24.516l-.444.84z" style="font-feature-settings:normal;font-variant-caps:normal;font-variant-ligatures:normal;font-variant-numeric:normal"/>
  <path d="m139.44 138.14q-.708 0-1.332-.204-.612-.216-1.068-.612-.444-.408-.708-.996-.252-.588-.252-1.332 0-.732.264-1.32t.696-.984q.444-.408 1.008-.624.576-.216 1.176-.216.708 0 1.236.228.54.228.9.624t.54.924.18 1.128q0 .276-.036.516-.024.24-.048.348h-3.852q.132.504.528.732t1.056.228q.36 0 .696-.084.348-.096.744-.276l.672 1.224q-.54.348-1.188.528-.648.168-1.212.168zm-.144-4.728q-.888 0-1.14.864h2.1q-.132-.864-.96-.864z" style="font-feature-settings:normal;font-variant-caps:normal;font-variant-ligatures:normal;font-variant-numeric:normal"/>
  <path d="m146.16 138.14q-.78 0-1.572-.264-.78-.264-1.356-.648l.864-1.272q.576.336 1.176.504t1.176.168q.396 0 .564-.096.18-.096.18-.264 0-.108-.072-.18-.06-.072-.216-.12-.144-.06-.408-.108-.252-.06-.624-.144-.624-.132-1.056-.312-.42-.192-.696-.432-.264-.24-.384-.528-.12-.3-.12-.648 0-.444.204-.804t.576-.612.9-.384q.528-.144 1.176-.144.852 0 1.512.276.672.264 1.152.564l-.912 1.224q-.468-.276-.972-.408-.504-.144-.972-.144-.288 0-.456.084t-.168.252q0 .096.06.156.072.06.216.12.144.048.384.096t.588.132q.672.156 1.116.336.456.18.72.42.276.228.384.528.108.288.108.66 0 .42-.204.792-.192.36-.588.636-.384.264-.96.42-.564.144-1.32.144z" style="font-feature-settings:normal;font-variant-caps:normal;font-variant-ligatures:normal;font-variant-numeric:normal"/>
 </g>
 <path transform="matrix(1.0007 0 0 1 -.80001 0)" d="m271.52 190.88h-71.525v-21.694h71.525v-6.6358l68.475 17.446-68.475 17.647z" fill="#8f8981"/>
 <g id="Commit" transform="translate(0 -.78592)" fill="white" fill-rule="evenodd" style="font-feature-settings:normal;font-variant-caps:normal;font-variant-ligatures:normal;font-variant-numeric:normal" aria-label="Commit">
  <path d="m226.24 184.31q-.732 0-1.404-.24-.66-.252-1.176-.744-.504-.504-.816-1.248-.3-.756-.3-1.752 0-.984.3-1.74.3-.768.816-1.284.516-.528 1.212-.804t1.488-.276q.756 0 1.368.312.612.3 1.032.696l-1.128 1.272q-.276-.24-.576-.372t-.696-.132q-.36 0-.672.156t-.54.444-.36.708-.132.948q0 1.104.504 1.692t1.296.588q.384 0 .696-.168.324-.18.576-.456l1.128 1.248q-.492.576-1.164.864-.66.288-1.452.288z" style="font-feature-settings:normal;font-variant-caps:normal;font-variant-ligatures:normal;font-variant-numeric:normal"/>
  <path d="m232.73 184.31q-.6 0-1.164-.204-.552-.216-.984-.612-.432-.408-.696-.996-.252-.588-.252-1.332t.252-1.332q.264-.588.696-.984.432-.408.984-.612.564-.216 1.164-.216.588 0 1.14.216.564.204.996.612.432.396.696.984t.264 1.332-.264 1.332-.696.996q-.432.396-.996.612-.552.204-1.14.204zm0-1.656q.528 0 .756-.396.228-.408.228-1.092t-.228-1.08q-.228-.408-.756-.408t-.756.408q-.228.396-.228 1.08t.228 1.092q.228.396.756.396z" style="font-feature-settings:normal;font-variant-caps:normal;font-variant-ligatures:normal;font-variant-numeric:normal"/>
  <path d="m236.64 184.17v-6h1.536l.144.72h.048q.144-.348.444-.6.3-.264.828-.264.372 0 .636.252.276.24.372.708.132-.384.456-.672t.84-.288q.648 0 .996.54.348.528.348 1.428v4.176h-1.944v-4.032q0-.36-.204-.36-.24 0-.396.456v3.936h-1.56v-4.032q0-.36-.24-.36-.204 0-.36.456v3.936z" style="font-feature-settings:normal;font-variant-caps:normal;font-variant-ligatures:normal;font-variant-numeric:normal"/>
  <path d="m243.84 184.17v-6h1.536l.144.72h.048q.144-.348.444-.6.3-.264.828-.264.372 0 .636.252.276.24.372.708.132-.384.456-.672t.84-.288q.648 0 .996.54.348.528.348 1.428v4.176h-1.944v-4.032q0-.36-.204-.36-.24 0-.396.456v3.936h-1.56v-4.032q0-.36-.24-.36-.204 0-.36.456v3.936z" style="font-feature-settings:normal;font-variant-caps:normal;font-variant-ligatures:normal;font-variant-numeric:normal"/>
  <path d="m253.89 184.17v-4.392h-2.28v-1.608h4.344v6zm.96-6.816q-.576 0-.948-.324-.372-.336-.372-.876t.372-.876q.372-.348.948-.348t.948.348q.372.336.372.876t-.372.876q-.372.324-.948.324z" style="font-feature-settings:normal;font-variant-caps:normal;font-variant-ligatures:normal;font-variant-numeric:normal"/>
  <path d="m262.55 184.31q-.744 0-1.26-.192-.504-.192-.828-.54-.312-.36-.456-.852-.144-.504-.144-1.104v-1.848h-1.44v-1.536l1.536-.072.264-1.8h1.704v1.8h2.376v1.608h-2.376v1.812q0 .648.288.888.3.228.876.228.312 0 .576-.048.276-.06.516-.144l.36 1.488q-.396.108-.888.204-.492.108-1.104.108z" style="font-feature-settings:normal;font-variant-caps:normal;font-variant-ligatures:normal;font-variant-numeric:normal"/>
 </g>
</svg>
