<?xml version="1.0" encoding="utf-8"?>
<svg width="205px" height="98px" viewBox="0 0 205 98" version="1.1" xmlns:xlink="http://www.w3.org/1999/xlink" xmlns="http://www.w3.org/2000/svg">
  <desc>Created with Lunacy</desc>
  <defs>
    <rect width="205" height="98" id="artboard_1" />
    <clipPath id="clip_1">
      <use xlink:href="#artboard_1" clip-rule="evenodd" />
    </clipPath>
  </defs>
  <g id="blob-(v)" clip-path="url(#clip_1)">
    <use xlink:href="#artboard_1" stroke="none" fill="#FFFFFF" />
    <path d="M0 0L0 98L205 98L205 0L0 0Z" id="Rectangle-14" fill="#CD9F00" stroke="none" />
    <g stroke="#979797" stroke-opacity="0.6" stroke-width="1" id="size" fill="#FFFFFF" fill-opacity="0.6" transform="translate(108 12)">
      <path d="M11.8359 2.28613L10.7578 2.28613L10.7578 3.64551L11.8359 3.64551L11.8359 2.28613ZM5.70117 6.09473L5.70117 5.04004Q5.23242 4.84668 4.74609 4.75Q4.25977 4.65332 3.73242 4.65332Q2.54883 4.65332 1.91016 5.16602Q1.27148 5.67871 1.27148 6.62207Q1.27148 7.36621 1.69922 7.79688Q2.12695 8.22754 3.05859 8.40918L3.46289 8.49121L3.50977 8.50293Q4.94531 8.79004 4.94531 9.54004Q4.94531 10.0615 4.55273 10.3516Q4.16016 10.6416 3.44531 10.6416Q2.95312 10.6416 2.40234 10.4863Q1.85156 10.3311 1.24805 10.0205L1.24805 11.1338Q1.86914 11.3389 2.40234 11.4414Q2.93555 11.5439 3.42188 11.5439Q4.65234 11.5439 5.34375 10.9961Q6.03516 10.4482 6.03516 9.47559Q6.03516 8.74316 5.62207 8.28613Q5.20898 7.8291 4.40625 7.67676L3.97266 7.59473Q2.90039 7.38965 2.63086 7.17285Q2.36133 6.95605 2.36133 6.5166Q2.36133 6.03027 2.72168 5.79297Q3.08203 5.55567 3.81445 5.55566Q4.30078 5.55567 4.76953 5.69043Q5.23828 5.8252 5.70117 6.09473ZM28.2363 8.08105L28.2363 7.55371Q28.1895 6.35254 27.4658 5.50293Q26.7422 4.65332 25.4883 4.65332Q24.082 4.65332 23.2383 5.59082Q22.3945 6.52832 22.3945 8.09863Q22.3945 9.70996 23.2559 10.627Q24.1172 11.5439 25.6465 11.5439Q26.1797 11.5439 26.751 11.418Q27.3223 11.292 27.9375 11.04L27.9375 9.96777Q27.2988 10.3018 26.7363 10.4658Q26.1738 10.6299 25.6582 10.6299Q24.6387 10.6299 24.0791 10.0439Q23.5195 9.45801 23.5664 8.11621L23.5664 8.08105L28.2363 8.08105ZM15.7793 4.7998L20.543 4.7998L20.543 5.78418L16.7754 10.4951L20.543 10.4951L20.543 11.374L15.6387 11.374L15.6387 10.3779L19.4063 5.66113L15.7793 5.66113L15.7793 4.7998ZM11.8359 4.83496L9.07617 4.83496L9.07617 5.67285L10.7578 5.67285L10.7578 10.5361L8.61914 10.5361L8.61914 11.374L13.9746 11.374L13.9746 10.5361L11.8359 10.5361L11.8359 4.83496ZM26.6631 6.0625Q27.0879 6.55762 27.1582 7.2373L23.6074 7.24316Q23.6543 6.59863 24.1582 6.08301Q24.6621 5.56738 25.4414 5.56738Q26.2383 5.56738 26.6631 6.0625Z" />
    </g>
    <g stroke="#979797" stroke-width="1" id="blob" fill="#FFFFFF" transform="translate(32 12)">
      <path d="M40.4268 4.92578Q40.0078 5.19824 39.6914 5.74316L39.6914 2.25684L37.9805 2.25684L37.9805 11.374L39.6914 11.374L39.6914 10.4014Q39.9609 10.9697 40.4004 11.2568Q40.8398 11.5439 41.4316 11.5439Q42.5566 11.5439 43.1777 10.6416Q43.7988 9.73926 43.7988 8.09863Q43.7988 6.43457 43.1689 5.54395Q42.5391 4.65332 41.373 4.65332Q40.8457 4.65332 40.4268 4.92578ZM46.5938 3.5752L46.5938 8.6377Q46.5938 10.1084 47.127 10.7412Q47.6602 11.374 48.8848 11.374L50.7363 11.374L50.7363 10.0557L49.3652 10.0557Q48.791 10.0557 48.5508 9.7334Q48.3105 9.41113 48.3105 8.6377L48.3105 2.25684L44.8535 2.25684L44.8535 3.5752L46.5938 3.5752ZM62.1006 4.92578Q61.6816 5.19824 61.3652 5.74316L61.3652 2.25684L59.6543 2.25684L59.6543 11.374L61.3652 11.374L61.3652 10.4014Q61.6348 10.9697 62.0742 11.2568Q62.5137 11.5439 63.1055 11.5439Q64.2305 11.5439 64.8516 10.6416Q65.4727 9.73926 65.4727 8.09863Q65.4727 6.43457 64.8428 5.54395Q64.2129 4.65332 63.0469 4.65332Q62.5195 4.65332 62.1006 4.92578ZM52.125 8.09863Q52.125 6.51074 52.9482 5.58203Q53.7715 4.65332 55.1602 4.65332Q56.5547 4.65332 57.3779 5.58203Q58.2012 6.51074 58.2012 8.09863Q58.2012 9.68652 57.3779 10.6152Q56.5547 11.5439 55.1602 11.5439Q53.7715 11.5439 52.9482 10.6152Q52.125 9.68652 52.125 8.09863ZM55.1602 6.04785Q54.5449 6.04785 54.1934 6.58984Q53.8418 7.13184 53.8418 8.09863Q53.8418 9.06543 54.1934 9.60742Q54.5449 10.1494 55.1602 10.1494Q55.7813 10.1494 56.1328 9.60742Q56.4844 9.06543 56.4844 8.09863Q56.4844 7.13184 56.1328 6.58984Q55.7813 6.04785 55.1602 6.04785ZM41.7656 6.62207Q42.082 7.16113 42.082 8.11035Q42.082 9.05957 41.7656 9.59863Q41.4492 10.1377 40.8926 10.1377Q40.3359 10.1377 40.0137 9.59863Q39.6914 9.05957 39.6914 8.11035Q39.6914 7.16113 40.0137 6.62207Q40.3359 6.08301 40.8926 6.08301Q41.4492 6.08301 41.7656 6.62207ZM63.4395 6.62207Q63.7559 7.16113 63.7559 8.11035Q63.7559 9.05957 63.4395 9.59863Q63.123 10.1377 62.5664 10.1377Q62.0098 10.1377 61.6875 9.59863Q61.3652 9.05957 61.3652 8.11035Q61.3652 7.16113 61.6875 6.62207Q62.0098 6.08301 62.5664 6.08301Q63.123 6.08301 63.4395 6.62207Z" />
      <line x1="37.1015625" y1="12.1357422" x2="44.32617" y2="12.1357422" style="stroke-width:0.5273438;stroke:#FFFFFF;" />
      <line x1="44.32617" y1="12.1357422" x2="51.55078" y2="12.1357422" style="stroke-width:0.5273438;stroke:#FFFFFF;" />
      <line x1="51.55078" y1="12.1357422" x2="58.77539" y2="12.1357422" style="stroke-width:0.5273438;stroke:#FFFFFF;" />
      <line x1="58.77539" y1="12.1357422" x2="66" y2="12.1357422" style="stroke-width:0.5273438;stroke:#FFFFFF;" />
    </g>
    <g id="==-Testing-library" transform="translate(16 39)">
      <g id="==-Testing-library" fill="#FFFFFF" fill-opacity="0.7">
        <path d="M62.9626 7.32251Q62.7627 7.04565 62.7627 6.50073L62.7627 1.41626L60.6577 1.41626L60.6577 2.04907L61.9541 2.04907L61.9541 6.50073Q61.9541 7.35327 62.3518 7.81689Q62.7495 8.28052 63.4746 8.28052L64.4985 8.28052L64.4985 7.59937L63.5537 7.59937Q63.1626 7.59937 62.9626 7.32251ZM72.6306 3.43335Q72.29 3.62671 72.0967 3.98706L72.0967 1.44263L71.2881 1.44263L71.2881 8.28052L72.0967 8.28052L72.0967 7.66089Q72.2988 8.02563 72.635 8.2168Q72.9712 8.40796 73.4106 8.40796Q74.3027 8.40796 74.8147 7.71582Q75.3267 7.02368 75.3267 5.8064Q75.3267 4.60669 74.8169 3.92334Q74.3071 3.23999 73.4194 3.23999Q72.9712 3.23999 72.6306 3.43335ZM40.5791 1.4646L41.3877 1.4646L41.3877 2.48413L40.5791 2.48413L40.5791 1.4646ZM67.6714 1.4646L68.48 1.4646L68.48 2.48413L67.6714 2.48413L67.6714 1.4646ZM16.4619 1.71948L21.4673 1.71948L21.4673 2.46655L19.415 2.46655L19.415 8.28052L18.5229 8.28052L18.5229 2.46655L16.4619 2.46655L16.4619 1.71948ZM35.209 3.35864L35.209 1.96118L34.4004 1.96118L34.4004 3.35864L33.0864 3.35864L33.0864 3.98706L34.4004 3.98706L34.4004 6.65894Q34.4004 7.55103 34.7739 7.91577Q35.1475 8.28052 36.0571 8.28052L37.0459 8.28052L37.0459 7.63452L36.1362 7.63452Q35.6221 7.63452 35.4155 7.41919Q35.209 7.20386 35.209 6.65894L35.209 3.98706L37.0459 3.98706L37.0459 3.35864L35.209 3.35864ZM26.5957 5.81079L26.5957 5.41528Q26.5605 4.5144 26.0178 3.8772Q25.4751 3.23999 24.5347 3.23999Q23.48 3.23999 22.8472 3.94312Q22.2144 4.64624 22.2144 5.82397Q22.2144 7.03247 22.8604 7.72021Q23.5063 8.40796 24.6533 8.40796Q25.0532 8.40796 25.4817 8.31348Q25.9102 8.21899 26.3716 8.03003L26.3716 7.22583Q25.8926 7.47632 25.4707 7.59937Q25.0488 7.72241 24.6621 7.72241Q23.8975 7.72241 23.4778 7.28296Q23.0581 6.84351 23.0933 5.83716L23.0933 5.81079L26.5957 5.81079ZM31.3682 4.32104Q31.021 4.1189 30.6694 4.01782Q30.3179 3.91675 29.9531 3.91675Q29.4038 3.91675 29.1335 4.09473Q28.8633 4.27271 28.8633 4.63745Q28.8633 4.96704 29.0654 5.12964Q29.2676 5.29224 30.0718 5.44604L30.397 5.50757Q30.999 5.62183 31.3088 5.9646Q31.6187 6.30737 31.6187 6.85669Q31.6187 7.58618 31.1001 7.99707Q30.5815 8.40796 29.6587 8.40796Q29.2939 8.40796 28.894 8.33105Q28.4941 8.25415 28.0283 8.10034L28.0283 7.26538Q28.481 7.49829 28.894 7.61475Q29.3071 7.7312 29.6763 7.7312Q30.2124 7.7312 30.5068 7.51367Q30.8013 7.29614 30.8013 6.90503Q30.8013 6.34253 29.7246 6.1272L29.6895 6.11841L29.3862 6.05688Q28.6875 5.92065 28.3667 5.59766Q28.0459 5.27466 28.0459 4.71655Q28.0459 4.00903 28.5249 3.62451Q29.0039 3.23999 29.8916 3.23999Q30.2871 3.23999 30.6519 3.3125Q31.0166 3.38501 31.3682 3.53003L31.3682 4.32104ZM47.9663 8.28052L47.9663 5.23071Q47.9663 4.22876 47.595 3.73438Q47.2236 3.23999 46.4722 3.23999Q45.9668 3.23999 45.5977 3.45752Q45.2285 3.67505 45.0132 4.09692L45.0132 3.35864L44.2046 3.35864L44.2046 8.28052L45.0132 8.28052L45.0132 5.49878Q45.0132 4.74731 45.3186 4.34521Q45.624 3.94312 46.1909 3.94312Q46.6875 3.94312 46.9204 4.25513Q47.1533 4.56714 47.1533 5.23071L47.1533 8.28052L47.9663 8.28052ZM53.3452 7.96411Q53.3452 9.07153 52.8223 9.64282Q52.2993 10.2141 51.2842 10.2141Q50.9502 10.2141 50.5854 10.1526Q50.2207 10.0911 49.856 9.97241L49.856 9.17261Q50.2866 9.37476 50.6382 9.47144Q50.9897 9.56812 51.2842 9.56812Q51.939 9.56812 52.2378 9.21216Q52.5366 8.8562 52.5366 8.08276L52.5366 7.49829Q52.3433 7.91138 52.0093 8.11353Q51.6753 8.31567 51.1963 8.31567Q50.335 8.31567 49.8208 7.62573Q49.3066 6.93579 49.3066 5.78003Q49.3066 4.61987 49.8208 3.92993Q50.335 3.23999 51.1963 3.23999Q51.6709 3.23999 52.0005 3.42896Q52.3301 3.61792 52.5366 4.01343L52.5366 3.37622L53.3452 3.37622L53.3452 7.96411ZM80.9341 4.37378Q80.6748 4.17163 80.4067 4.07935Q80.1387 3.98706 79.8179 3.98706Q79.062 3.98706 78.6621 4.46167Q78.2622 4.93628 78.2622 5.83276L78.2622 8.28052L77.4492 8.28052L77.4492 3.35864L78.2622 3.35864L78.2622 4.32104Q78.4644 3.7981 78.884 3.51904Q79.3037 3.23999 79.8794 3.23999Q80.1782 3.23999 80.4375 3.3147Q80.6968 3.3894 80.9341 3.54761L80.9341 4.37378ZM85.9307 8.28052L85.9307 5.47241Q85.9307 4.82642 85.8604 4.50342Q85.79 4.18042 85.623 3.96069Q85.355 3.60034 84.9221 3.42017Q84.4893 3.23999 83.8784 3.23999Q83.4917 3.23999 83.0808 3.32568Q82.6699 3.41138 82.2217 3.58276L82.2217 4.39136Q82.6216 4.16284 83.0435 4.04419Q83.4653 3.92554 83.8784 3.92554Q84.5244 3.92554 84.8188 4.19141Q85.1133 4.45728 85.1177 5.04614L85.1177 5.17358L84.0322 5.17358Q82.9644 5.17358 82.4128 5.59985Q81.8613 6.02612 81.8613 6.8479Q81.8613 7.55981 82.3096 7.98389Q82.7578 8.40796 83.5093 8.40796Q84.0718 8.40796 84.4651 8.19922Q84.8584 7.99048 85.1177 7.55103L85.1177 8.28052L85.9307 8.28052ZM91.771 4.37378Q91.5117 4.17163 91.2437 4.07935Q90.9756 3.98706 90.6548 3.98706Q89.8989 3.98706 89.499 4.46167Q89.0991 4.93628 89.0991 5.83276L89.0991 8.28052L88.2861 8.28052L88.2861 3.35864L89.0991 3.35864L89.0991 4.32104Q89.3013 3.7981 89.7209 3.51904Q90.1406 3.23999 90.7163 3.23999Q91.0151 3.23999 91.2744 3.3147Q91.5337 3.3894 91.771 3.54761L91.771 4.37378ZM95.3701 8.052Q95.6821 7.21265 95.8843 6.69849L97.1807 3.35864L96.3237 3.35864L94.8867 7.20825L93.4277 3.35864L92.5708 3.35864L94.4736 8.20142Q94.1616 9.06274 93.9595 9.26929Q93.7573 9.47583 93.4014 9.47583L92.9224 9.47583L92.9224 10.1526L93.5728 10.1526Q93.9771 10.1526 94.2803 9.9812Q94.5835 9.80981 94.7856 9.46704Q94.9351 9.21216 95.3701 8.052ZM39.3179 3.37622L41.3877 3.37622L41.3877 7.6521L42.9917 7.6521L42.9917 8.28052L38.9751 8.28052L38.9751 7.6521L40.5791 7.6521L40.5791 4.00464L39.3179 4.00464L39.3179 3.37622ZM66.4102 3.37622L68.48 3.37622L68.48 7.6521L70.084 7.6521L70.084 8.28052L66.0674 8.28052L66.0674 7.6521L67.6714 7.6521L67.6714 4.00464L66.4102 4.00464L66.4102 3.37622ZM25.4158 4.29688Q25.7344 4.66821 25.7871 5.17798L23.124 5.18237Q23.1592 4.69897 23.5371 4.31226Q23.915 3.92554 24.4995 3.92554Q25.0972 3.92554 25.4158 4.29688ZM52.5366 5.78003Q52.5366 4.87036 52.24 4.39795Q51.9434 3.92554 51.3765 3.92554Q50.7832 3.92554 50.4712 4.39795Q50.1592 4.87036 50.1592 5.78003Q50.1592 6.6897 50.4734 7.1665Q50.7876 7.64331 51.3853 7.64331Q51.9434 7.64331 52.24 7.16431Q52.5366 6.6853 52.5366 5.78003ZM74.1753 4.40454Q74.4741 4.88354 74.4741 5.82397Q74.4741 6.7644 74.1753 7.24341Q73.8765 7.72241 73.292 7.72241Q72.7031 7.72241 72.3999 7.23901Q72.0967 6.75562 72.0967 5.82397Q72.0967 4.88794 72.3999 4.40674Q72.7031 3.92554 73.292 3.92554Q73.8765 3.92554 74.1753 4.40454ZM5.03174 4.01343L0.386719 4.01343L0.386719 4.7561L5.03174 4.7561L5.03174 4.01343ZM10.4502 4.01343L5.80518 4.01343L5.80518 4.7561L10.4502 4.7561L10.4502 4.01343ZM84.0938 5.8064L85.1177 5.8064L85.1177 5.98657Q85.1133 6.80396 84.731 7.26758Q84.3486 7.7312 83.6807 7.7312Q83.2061 7.7312 82.938 7.48511Q82.6699 7.23901 82.6699 6.79517Q82.6699 6.30298 83.0281 6.05469Q83.3862 5.8064 84.0938 5.8064ZM5.03174 6.08325L0.386719 6.08325L0.386719 6.82593L5.03174 6.82593L5.03174 6.08325ZM10.4502 6.08325L5.80518 6.08325L5.80518 6.82593L10.4502 6.82593L10.4502 6.08325Z" />
      </g>
      <g id="This-library-is-used-to-test" fill="#FFFFFF" fill-opacity="0.7">
        <path d="M30.4519 27.3225Q30.252 27.0457 30.252 26.5007L30.252 21.4163L28.147 21.4163L28.147 22.0491L29.4434 22.0491L29.4434 26.5007Q29.4434 27.3533 29.8411 27.8169Q30.2388 28.2805 30.9639 28.2805L31.9878 28.2805L31.9878 27.5994L31.043 27.5994Q30.6519 27.5994 30.4519 27.3225ZM10.0371 25.2307L10.0371 28.2805L9.22412 28.2805L9.22412 25.2307Q9.22412 24.5671 8.99121 24.2551Q8.7583 23.9431 8.26172 23.9431Q7.69482 23.9431 7.3894 24.3452Q7.08398 24.7473 7.08398 25.4988L7.08398 28.2805L6.27539 28.2805L6.27539 21.4426L7.08398 21.4426L7.08398 24.0969Q7.29932 23.675 7.66846 23.4575Q8.0376 23.24 8.54297 23.24Q9.29443 23.24 9.66577 23.7344Q10.0371 24.2288 10.0371 25.2307ZM40.1199 23.4333Q39.7793 23.6267 39.5859 23.9871L39.5859 21.4426L38.7773 21.4426L38.7773 28.2805L39.5859 28.2805L39.5859 27.6609Q39.7881 28.0256 40.1243 28.2168Q40.4604 28.408 40.8999 28.408Q41.792 28.408 42.304 27.7158Q42.8159 27.0237 42.8159 25.8064Q42.8159 24.6067 42.3062 23.9233Q41.7964 23.24 40.9087 23.24Q40.4604 23.24 40.1199 23.4333ZM106.721 21.4426L106.721 23.9871Q106.528 23.6223 106.189 23.4312Q105.851 23.24 105.407 23.24Q104.52 23.24 104.005 23.9233Q103.491 24.6067 103.491 25.8064Q103.491 27.0237 104.003 27.7158Q104.515 28.408 105.407 28.408Q105.847 28.408 106.183 28.2168Q106.519 28.0256 106.721 27.6609L106.721 28.2805L107.53 28.2805L107.53 21.4426L106.721 21.4426ZM14.2954 21.4646L13.4868 21.4646L13.4868 22.4841L14.2954 22.4841L14.2954 21.4646ZM35.1606 21.4646L35.9692 21.4646L35.9692 22.4841L35.1606 22.4841L35.1606 21.4646ZM73.0898 21.4646L73.8984 21.4646L73.8984 22.4841L73.0898 22.4841L73.0898 21.4646ZM0.206543 21.7195L5.21191 21.7195L5.21191 22.4666L3.15967 22.4666L3.15967 28.2805L2.26758 28.2805L2.26758 22.4666L0.206543 22.4666L0.206543 21.7195ZM116.486 21.9612L116.486 23.3586L118.323 23.3586L118.323 23.9871L116.486 23.9871L116.486 26.6589Q116.486 27.2039 116.692 27.4192Q116.899 27.6345 117.413 27.6345L118.323 27.6345L118.323 28.2805L117.334 28.2805Q116.424 28.2805 116.051 27.9158Q115.677 27.551 115.677 26.6589L115.677 23.9871L114.363 23.9871L114.363 23.3586L115.677 23.3586L115.677 21.9612L116.486 21.9612ZM132.741 21.9612L132.741 23.3586L134.578 23.3586L134.578 23.9871L132.741 23.9871L132.741 26.6589Q132.741 27.2039 132.948 27.4192Q133.154 27.6345 133.668 27.6345L134.578 27.6345L134.578 28.2805L133.589 28.2805Q132.68 28.2805 132.306 27.9158Q131.933 27.551 131.933 26.6589L131.933 23.9871L130.619 23.9871L130.619 23.3586L131.933 23.3586L131.933 21.9612L132.741 21.9612ZM148.997 23.3586L148.997 21.9612L148.188 21.9612L148.188 23.3586L146.874 23.3586L146.874 23.9871L148.188 23.9871L148.188 26.6589Q148.188 27.551 148.562 27.9158Q148.935 28.2805 149.845 28.2805L150.833 28.2805L150.833 27.6345L149.924 27.6345Q149.41 27.6345 149.203 27.4192Q148.997 27.2039 148.997 26.6589L148.997 23.9871L150.833 23.9871L150.833 23.3586L148.997 23.3586ZM20.5313 23.53L20.5313 24.321Q20.1841 24.1189 19.8325 24.0178Q19.481 23.9167 19.1162 23.9167Q18.5669 23.9167 18.2966 24.0947Q18.0264 24.2727 18.0264 24.6375Q18.0264 24.967 18.2285 25.1296Q18.4307 25.2922 19.2349 25.446L19.5601 25.5076Q20.1621 25.6218 20.4719 25.9646Q20.7817 26.3074 20.7817 26.8567Q20.7817 27.5862 20.2632 27.9971Q19.7446 28.408 18.8218 28.408Q18.457 28.408 18.0571 28.3311Q17.6572 28.2542 17.1914 28.1003L17.1914 27.2654Q17.644 27.4983 18.0571 27.6147Q18.4702 27.7312 18.8394 27.7312Q19.3755 27.7312 19.6699 27.5137Q19.9644 27.2961 19.9644 26.905Q19.9644 26.3425 18.8877 26.1272L18.8525 26.1184L18.5493 26.0569Q17.8506 25.9207 17.5298 25.5977Q17.209 25.2747 17.209 24.7166Q17.209 24.009 17.688 23.6245Q18.167 23.24 19.0547 23.24Q19.4502 23.24 19.8149 23.3125Q20.1797 23.385 20.5313 23.53ZM48.4233 24.3738Q48.1641 24.1716 47.896 24.0793Q47.6279 23.9871 47.3071 23.9871Q46.5513 23.9871 46.1514 24.4617Q45.7515 24.9363 45.7515 25.8328L45.7515 28.2805L44.9385 28.2805L44.9385 23.3586L45.7515 23.3586L45.7515 24.321Q45.9536 23.7981 46.3733 23.519Q46.793 23.24 47.3687 23.24Q47.6675 23.24 47.9268 23.3147Q48.186 23.3894 48.4233 23.5476L48.4233 24.3738ZM53.4199 28.2805L53.4199 25.4724Q53.4199 24.8264 53.3496 24.5034Q53.2793 24.1804 53.1123 23.9607Q52.8442 23.6003 52.4114 23.4202Q51.9785 23.24 51.3677 23.24Q50.981 23.24 50.5701 23.3257Q50.1592 23.4114 49.7109 23.5828L49.7109 24.3914Q50.1108 24.1628 50.5327 24.0442Q50.9546 23.9255 51.3677 23.9255Q52.0137 23.9255 52.3081 24.1914Q52.6025 24.4573 52.6069 25.0461L52.6069 25.1736L51.5215 25.1736Q50.4536 25.1736 49.9021 25.5999Q49.3506 26.0261 49.3506 26.8479Q49.3506 27.5598 49.7988 27.9839Q50.2471 28.408 50.9985 28.408Q51.561 28.408 51.9543 28.1992Q52.3477 27.9905 52.6069 27.551L52.6069 28.2805L53.4199 28.2805ZM59.2603 24.3738Q59.001 24.1716 58.7329 24.0793Q58.4648 23.9871 58.144 23.9871Q57.3882 23.9871 56.9883 24.4617Q56.5884 24.9363 56.5884 25.8328L56.5884 28.2805L55.7754 28.2805L55.7754 23.3586L56.5884 23.3586L56.5884 24.321Q56.7905 23.7981 57.2102 23.519Q57.6299 23.24 58.2056 23.24Q58.5044 23.24 58.7637 23.3147Q59.0229 23.3894 59.2603 23.5476L59.2603 24.3738ZM79.4355 24.0178Q79.7871 24.1189 80.1343 24.321L80.1343 23.53Q79.7827 23.385 79.418 23.3125Q79.0532 23.24 78.6577 23.24Q77.77 23.24 77.291 23.6245Q76.812 24.009 76.812 24.7166Q76.812 25.2747 77.1328 25.5977Q77.4536 25.9207 78.1523 26.0569L78.4556 26.1184L78.4907 26.1272Q79.5674 26.3425 79.5674 26.905Q79.5674 27.2961 79.2729 27.5137Q78.9785 27.7312 78.4424 27.7312Q78.0732 27.7312 77.6602 27.6147Q77.2471 27.4983 76.7944 27.2654L76.7944 28.1003Q77.2603 28.2542 77.6602 28.3311Q78.0601 28.408 78.4248 28.408Q79.3477 28.408 79.8662 27.9971Q80.3848 27.5862 80.3848 26.8567Q80.3848 26.3074 80.075 25.9646Q79.7651 25.6218 79.1631 25.5076L78.8379 25.446Q78.0337 25.2922 77.8315 25.1296Q77.6294 24.967 77.6294 24.6375Q77.6294 24.2727 77.8997 24.0947Q78.1699 23.9167 78.7192 23.9167Q79.084 23.9167 79.4355 24.0178ZM95.6909 24.0178Q96.0425 24.1189 96.3896 24.321L96.3896 23.53Q96.0381 23.385 95.6733 23.3125Q95.3086 23.24 94.9131 23.24Q94.0254 23.24 93.5464 23.6245Q93.0674 24.009 93.0674 24.7166Q93.0674 25.2747 93.3882 25.5977Q93.709 25.9207 94.4077 26.0569L94.7109 26.1184L94.7461 26.1272Q95.8228 26.3425 95.8228 26.905Q95.8228 27.2961 95.5283 27.5137Q95.2339 27.7312 94.6978 27.7312Q94.3286 27.7312 93.9155 27.6147Q93.5024 27.4983 93.0498 27.2654L93.0498 28.1003Q93.5156 28.2542 93.9155 28.3311Q94.3154 28.408 94.6802 28.408Q95.603 28.408 96.1216 27.9971Q96.6401 27.5862 96.6401 26.8567Q96.6401 26.3074 96.3303 25.9646Q96.0205 25.6218 95.4185 25.5076L95.0933 25.446Q94.2891 25.2922 94.0869 25.1296Q93.8848 24.967 93.8848 24.6375Q93.8848 24.2727 94.155 24.0947Q94.4253 23.9167 94.9746 23.9167Q95.3394 23.9167 95.6909 24.0178ZM102.454 25.4153L102.454 25.8108L98.9517 25.8108L98.9517 25.8372Q98.9165 26.8435 99.3362 27.283Q99.7559 27.7224 100.521 27.7224Q100.907 27.7224 101.329 27.5994Q101.751 27.4763 102.23 27.2258L102.23 28.03Q101.769 28.219 101.34 28.3135Q100.912 28.408 100.512 28.408Q99.3647 28.408 98.7188 27.7202Q98.0728 27.0325 98.0728 25.824Q98.0728 24.6462 98.7056 23.9431Q99.3384 23.24 100.393 23.24Q101.333 23.24 101.876 23.8772Q102.419 24.5144 102.454 25.4153ZM123.48 23.9036Q122.937 23.24 121.913 23.24Q120.889 23.24 120.349 23.9036Q119.808 24.5671 119.808 25.824Q119.808 27.0852 120.349 27.7466Q120.889 28.408 121.913 28.408Q122.941 28.408 123.482 27.7466Q124.022 27.0852 124.022 25.824Q124.022 24.5671 123.48 23.9036ZM140.383 25.8108L140.383 25.4153Q140.348 24.5144 139.805 23.8772Q139.263 23.24 138.322 23.24Q137.268 23.24 136.635 23.9431Q136.002 24.6462 136.002 25.824Q136.002 27.0325 136.648 27.7202Q137.294 28.408 138.441 28.408Q138.841 28.408 139.269 28.3135Q139.698 28.219 140.159 28.03L140.159 27.2258Q139.68 27.4763 139.258 27.5994Q138.836 27.7224 138.45 27.7224Q137.685 27.7224 137.265 27.283Q136.846 26.8435 136.881 25.8372L136.881 25.8108L140.383 25.8108ZM145.156 24.321Q144.809 24.1189 144.457 24.0178Q144.105 23.9167 143.741 23.9167Q143.191 23.9167 142.921 24.0947Q142.651 24.2727 142.651 24.6375Q142.651 24.967 142.853 25.1296Q143.055 25.2922 143.859 25.446L144.185 25.5076Q144.787 25.6218 145.096 25.9646Q145.406 26.3074 145.406 26.8567Q145.406 27.5862 144.888 27.9971Q144.369 28.408 143.446 28.408Q143.082 28.408 142.682 28.3311Q142.282 28.2542 141.816 28.1003L141.816 27.2654Q142.269 27.4983 142.682 27.6147Q143.095 27.7312 143.464 27.7312Q144 27.7312 144.294 27.5137Q144.589 27.2961 144.589 26.905Q144.589 26.3425 143.512 26.1272L143.477 26.1184L143.174 26.0569Q142.475 25.9207 142.154 25.5977Q141.833 25.2747 141.833 24.7166Q141.833 24.009 142.313 23.6245Q142.792 23.24 143.679 23.24Q144.075 23.24 144.439 23.3125Q144.804 23.385 145.156 23.53L145.156 24.321ZM62.8594 28.052Q63.1714 27.2126 63.3735 26.6985L64.6699 23.3586L63.813 23.3586L62.376 27.2083L60.917 23.3586L60.0601 23.3586L61.9629 28.2014Q61.6509 29.0627 61.4487 29.2693Q61.2466 29.4758 60.8906 29.4758L60.4116 29.4758L60.4116 30.1526L61.062 30.1526Q61.4663 30.1526 61.7695 29.9812Q62.0728 29.8098 62.2749 29.467Q62.4243 29.2122 62.8594 28.052ZM87.5522 26.4172L87.5522 23.3674L88.3608 23.3674L88.3608 26.4172Q88.3608 27.0808 88.5959 27.3928Q88.8311 27.7048 89.3232 27.7048Q89.8945 27.7048 90.1978 27.3027Q90.501 26.9006 90.501 26.1492L90.501 23.3674L91.314 23.3674L91.314 28.2805L90.501 28.2805L90.501 27.5422Q90.2856 27.9685 89.9143 28.1882Q89.543 28.408 89.0464 28.408Q88.2905 28.408 87.9214 27.9136Q87.5522 27.4192 87.5522 26.4172ZM14.2954 23.3762L12.2256 23.3762L12.2256 24.0046L13.4868 24.0046L13.4868 27.6521L11.8828 27.6521L11.8828 28.2805L15.8994 28.2805L15.8994 27.6521L14.2954 27.6521L14.2954 23.3762ZM33.8994 23.3762L35.9692 23.3762L35.9692 27.6521L37.5732 27.6521L37.5732 28.2805L33.5566 28.2805L33.5566 27.6521L35.1606 27.6521L35.1606 24.0046L33.8994 24.0046L33.8994 23.3762ZM71.8286 23.3762L73.8984 23.3762L73.8984 27.6521L75.5024 27.6521L75.5024 28.2805L71.4858 28.2805L71.4858 27.6521L73.0898 27.6521L73.0898 24.0046L71.8286 24.0046L71.8286 23.3762ZM41.6646 24.4045Q41.9634 24.8835 41.9634 25.824Q41.9634 26.7644 41.6646 27.2434Q41.3657 27.7224 40.7813 27.7224Q40.1924 27.7224 39.8892 27.239Q39.5859 26.7556 39.5859 25.824Q39.5859 24.8879 39.8892 24.4067Q40.1924 23.9255 40.7813 23.9255Q41.3657 23.9255 41.6646 24.4045ZM101.646 25.178Q101.593 24.6682 101.274 24.2969Q100.956 23.9255 100.358 23.9255Q99.7734 23.9255 99.3955 24.3123Q99.0176 24.699 98.9824 25.1824L101.646 25.178ZM104.643 27.2434Q104.344 26.7644 104.344 25.824Q104.344 24.8835 104.643 24.4045Q104.941 23.9255 105.526 23.9255Q106.11 23.9255 106.416 24.4067Q106.721 24.8879 106.721 25.824Q106.721 26.7556 106.416 27.239Q106.11 27.7224 105.526 27.7224Q104.941 27.7224 104.643 27.2434ZM120.981 24.4045Q121.298 23.9255 121.913 23.9255Q122.533 23.9255 122.849 24.4045Q123.166 24.8835 123.166 25.824Q123.166 26.76 122.849 27.2412Q122.533 27.7224 121.913 27.7224Q121.298 27.7224 120.981 27.2412Q120.665 26.76 120.665 25.824Q120.665 24.8835 120.981 24.4045ZM139.203 24.2969Q139.522 24.6682 139.575 25.178L136.912 25.1824Q136.947 24.699 137.325 24.3123Q137.703 23.9255 138.287 23.9255Q138.885 23.9255 139.203 24.2969ZM51.583 25.8064L52.6069 25.8064L52.6069 25.9866Q52.6025 26.804 52.2202 27.2676Q51.8379 27.7312 51.1699 27.7312Q50.6953 27.7312 50.4272 27.4851Q50.1592 27.239 50.1592 26.7952Q50.1592 26.303 50.5173 26.0547Q50.8755 25.8064 51.583 25.8064Z" />
      </g>
      <g id="Ruby-projects." fill="#FFFFFF" fill-opacity="0.7">
        <path d="M13.0276 33.4333Q12.687 33.6267 12.4937 33.9871L12.4937 31.4426L11.6851 31.4426L11.6851 38.2805L12.4937 38.2805L12.4937 37.6609Q12.6958 38.0256 13.032 38.2168Q13.3682 38.408 13.8076 38.408Q14.6997 38.408 15.2117 37.7158Q15.7236 37.0237 15.7236 35.8064Q15.7236 34.6067 15.2139 33.9233Q14.7041 33.24 13.8164 33.24Q13.3682 33.24 13.0276 33.4333ZM45.9844 31.4426L46.793 31.4426L46.793 32.4666L45.9844 32.4666L45.9844 31.4426ZM3.33984 35.1824Q3.68262 35.2703 3.92432 35.5142Q4.16602 35.7581 4.52637 36.4875L5.41846 38.2805L4.46484 38.2805L3.68262 36.6238Q3.34424 35.9163 3.07397 35.7119Q2.80371 35.5076 2.36865 35.5076L1.52051 35.5076L1.52051 38.2805L0.628418 38.2805L0.628418 31.7195L2.45654 31.7195Q3.5376 31.7195 4.11328 32.2073Q4.68896 32.6951 4.68896 33.6179Q4.68896 34.2683 4.33521 34.6792Q3.98144 35.0901 3.33984 35.1824ZM62.3013 33.3586L62.3013 31.9612L61.4927 31.9612L61.4927 33.3586L60.1787 33.3586L60.1787 33.9871L61.4927 33.9871L61.4927 36.6589Q61.4927 37.551 61.8662 37.9158Q62.2397 38.2805 63.1494 38.2805L64.1382 38.2805L64.1382 37.6345L63.2285 37.6345Q62.7144 37.6345 62.5078 37.4192Q62.3013 37.2039 62.3013 36.6589L62.3013 33.9871L64.1382 33.9871L64.1382 33.3586L62.3013 33.3586ZM1.52051 32.449L1.52051 34.7781L2.4917 34.7781Q3.12891 34.7781 3.44092 34.4924Q3.75293 34.2068 3.75293 33.6179Q3.75293 33.051 3.42114 32.75Q3.08936 32.449 2.45654 32.449L1.52051 32.449ZM28.7402 40.1526L28.7402 37.6609Q28.9336 38.0256 29.2698 38.2168Q29.606 38.408 30.0542 38.408Q30.9419 38.408 31.4517 37.7246Q31.9614 37.0413 31.9614 35.8416Q31.9614 34.6199 31.4539 33.9299Q30.9463 33.24 30.0542 33.24Q29.6147 33.24 29.2786 33.4312Q28.9424 33.6223 28.7402 33.9871L28.7402 33.3586L27.9272 33.3586L27.9272 40.1526L28.7402 40.1526ZM37.5864 34.3738Q37.3271 34.1716 37.0591 34.0793Q36.791 33.9871 36.4702 33.9871Q35.7144 33.9871 35.3145 34.4617Q34.9146 34.9363 34.9146 35.8328L34.9146 38.2805L34.1016 38.2805L34.1016 33.3586L34.9146 33.3586L34.9146 34.321Q35.1167 33.7981 35.5364 33.519Q35.9561 33.24 36.5317 33.24Q36.8306 33.24 37.0898 33.3147Q37.3491 33.3894 37.5864 33.5476L37.5864 34.3738ZM42.2029 33.9036Q41.6602 33.24 40.6362 33.24Q39.6123 33.24 39.0718 33.9036Q38.5313 34.5671 38.5313 35.824Q38.5313 37.0852 39.0718 37.7466Q39.6123 38.408 40.6362 38.408Q41.6646 38.408 42.2051 37.7466Q42.7456 37.0852 42.7456 35.824Q42.7456 34.5671 42.2029 33.9036ZM53.688 35.8108L53.688 35.4153Q53.6528 34.5144 53.1101 33.8772Q52.5674 33.24 51.627 33.24Q50.5723 33.24 49.9395 33.9431Q49.3066 34.6462 49.3066 35.824Q49.3066 37.0325 49.9526 37.7202Q50.5986 38.408 51.7456 38.408Q52.1455 38.408 52.574 38.3135Q53.0024 38.219 53.4639 38.03L53.4639 37.2258Q52.9849 37.4763 52.563 37.5994Q52.1411 37.7224 51.7544 37.7224Q50.9897 37.7224 50.5701 37.283Q50.1504 36.8435 50.1855 35.8372L50.1855 35.8108L53.688 35.8108ZM58.8472 38.03Q58.522 38.219 58.177 38.3135Q57.832 38.408 57.4717 38.408Q56.3291 38.408 55.6853 37.7224Q55.0415 37.0369 55.0415 35.824Q55.0415 34.6111 55.6853 33.9255Q56.3291 33.24 57.4717 33.24Q57.8276 33.24 58.166 33.3323Q58.5044 33.4246 58.8472 33.6179L58.8472 34.4661Q58.5264 34.1804 58.2034 34.053Q57.8804 33.9255 57.4717 33.9255Q56.7114 33.9255 56.3027 34.4177Q55.894 34.9099 55.894 35.824Q55.894 36.7336 56.3049 37.228Q56.7158 37.7224 57.4717 37.7224Q57.8936 37.7224 58.2275 37.5928Q58.5615 37.4631 58.8472 37.1907L58.8472 38.03ZM69.2974 34.321Q68.9502 34.1189 68.5986 34.0178Q68.2471 33.9167 67.8823 33.9167Q67.333 33.9167 67.0627 34.0947Q66.7925 34.2727 66.7925 34.6375Q66.7925 34.967 66.9946 35.1296Q67.1968 35.2922 68.001 35.446L68.3262 35.5076Q68.9282 35.6218 69.238 35.9646Q69.5479 36.3074 69.5479 36.8567Q69.5479 37.5862 69.0293 37.9971Q68.5107 38.408 67.5879 38.408Q67.2231 38.408 66.8232 38.3311Q66.4233 38.2542 65.9575 38.1003L65.9575 37.2654Q66.4102 37.4983 66.8232 37.6147Q67.2363 37.7312 67.6055 37.7312Q68.1416 37.7312 68.436 37.5137Q68.7305 37.2961 68.7305 36.905Q68.7305 36.3425 67.6538 36.1272L67.6187 36.1184L67.3154 36.0569Q66.6167 35.9207 66.2959 35.5977Q65.9751 35.2747 65.9751 34.7166Q65.9751 34.009 66.4541 33.6245Q66.9331 33.24 67.8208 33.24Q68.2163 33.24 68.5811 33.3125Q68.9458 33.385 69.2974 33.53L69.2974 34.321ZM20.0259 36.6985Q19.8237 37.2126 19.5117 38.052Q19.0767 39.2122 18.9272 39.467Q18.7251 39.8098 18.4219 39.9812Q18.1187 40.1526 17.7144 40.1526L17.064 40.1526L17.064 39.4758L17.543 39.4758Q17.8989 39.4758 18.1011 39.2693Q18.3032 39.0627 18.6152 38.2014L16.7124 33.3586L17.5693 33.3586L19.0283 37.2083L20.4653 33.3586L21.3223 33.3586L20.0259 36.6985ZM45.9844 38.3684L45.9844 33.9871L44.5913 33.9871L44.5913 33.3586L46.793 33.3586L46.793 38.3684Q46.793 39.2253 46.3997 39.689Q46.0063 40.1526 45.2813 40.1526L44.165 40.1526L44.165 39.467L45.1934 39.467Q45.5889 39.467 45.7866 39.1924Q45.9844 38.9177 45.9844 38.3684ZM6.27539 36.4172L6.27539 33.3674L7.08398 33.3674L7.08398 36.4172Q7.08398 37.0808 7.31909 37.3928Q7.5542 37.7048 8.04639 37.7048Q8.61768 37.7048 8.9209 37.3027Q9.22412 36.9006 9.22412 36.1492L9.22412 33.3674L10.0371 33.3674L10.0371 38.2805L9.22412 38.2805L9.22412 37.5422Q9.00879 37.9685 8.63745 38.1882Q8.26611 38.408 7.76953 38.408Q7.01367 38.408 6.64453 37.9136Q6.27539 37.4192 6.27539 36.4172ZM14.5723 34.4045Q14.8711 34.8835 14.8711 35.824Q14.8711 36.7644 14.5723 37.2434Q14.2734 37.7224 13.689 37.7224Q13.1001 37.7224 12.7969 37.239Q12.4937 36.7556 12.4937 35.824Q12.4937 34.8879 12.7969 34.4067Q13.1001 33.9255 13.689 33.9255Q14.2734 33.9255 14.5723 34.4045ZM30.8167 34.4045Q31.1133 34.8835 31.1133 35.824Q31.1133 36.7644 30.8167 37.2434Q30.52 37.7224 29.9355 37.7224Q29.3467 37.7224 29.0435 37.239Q28.7402 36.7556 28.7402 35.824Q28.7402 34.8879 29.0435 34.4067Q29.3467 33.9255 29.9355 33.9255Q30.52 33.9255 30.8167 34.4045ZM39.7046 34.4045Q40.021 33.9255 40.6362 33.9255Q41.2559 33.9255 41.5723 34.4045Q41.8887 34.8835 41.8887 35.824Q41.8887 36.76 41.5723 37.2412Q41.2559 37.7224 40.6362 37.7224Q40.021 37.7224 39.7046 37.2412Q39.3882 36.76 39.3882 35.824Q39.3882 34.8835 39.7046 34.4045ZM52.5081 34.2969Q52.8267 34.6682 52.8794 35.178L50.2163 35.1824Q50.2515 34.699 50.6294 34.3123Q51.0073 33.9255 51.5918 33.9255Q52.1895 33.9255 52.5081 34.2969ZM73.6963 36.5051L72.1494 36.5051L72.1494 38.2805L73.6963 38.2805L73.6963 36.5051Z" />
      </g>
    </g>
  </g>
</svg>